<?xml version="1.0" encoding="UTF-8"?>
<svg width="512" height="512" viewBox="0 0 512 512"
     xmlns="http://www.w3.org/2000/svg"
     xmlns:xlink="http://www.w3.org/1999/xlink">

  <!-- ============== PREMIUM LOGO DEFINITIONS ============== -->
  <defs>
    <!-- Primary Brand Gradient (Hexagon Frame) -->
    <linearGradient id="hexagon-gradient" x1="0%" y1="0%" x2="100%" y2="100%">
      <stop offset="0%" stop-color="#6366F1">
        <animate attributeName="stop-color" 
                 values="#6366F1;#8B5CF6;#A855F7;#6366F1" 
                 dur="8s" 
                 repeatCount="indefinite"/>
      </stop>
      <stop offset="25%" stop-color="#8B5CF6"/>
      <stop offset="50%" stop-color="#A855F7"/>
      <stop offset="75%" stop-color="#EC4899"/>
      <stop offset="100%" stop-color="#F97316">
        <animate attributeName="stop-color" 
                 values="#F97316;#EC4899;#A855F7;#F97316" 
                 dur="8s" 
                 repeatCount="indefinite"/>
      </stop>
    </linearGradient>

    <!-- Brain Intelligence Gradient -->
    <linearGradient id="brain-gradient" x1="0%" y1="0%" x2="100%" y2="100%">
      <stop offset="0%" stop-color="#EF4444"/>
      <stop offset="30%" stop-color="#F97316"/>
      <stop offset="60%" stop-color="#EC4899"/>
      <stop offset="100%" stop-color="#A855F7"/>
    </linearGradient>

    <!-- Controller Base Gradient -->
    <linearGradient id="controller-gradient" x1="0%" y1="0%" x2="100%" y2="100%">
      <stop offset="0%" stop-color="#6366F1"/>
      <stop offset="50%" stop-color="#8B5CF6"/>
      <stop offset="100%" stop-color="#A855F7"/>
    </linearGradient>

    <!-- Glow Effect for Premium Look -->
    <filter id="premium-glow" x="-50%" y="-50%" width="200%" height="200%">
      <feGaussianBlur stdDeviation="4" result="coloredBlur"/>
      <feMerge>
        <feMergeNode in="coloredBlur"/>
        <feMergeNode in="SourceGraphic"/>
      </feMerge>
    </filter>

    <!-- Inner Shadow for Depth -->
    <filter id="inner-shadow" x="-50%" y="-50%" width="200%" height="200%">
      <feDropShadow dx="0" dy="2" stdDeviation="3" flood-color="#000000" flood-opacity="0.3"/>
    </filter>

    <!-- Subtle Animation Glow -->
    <filter id="subtle-glow" x="-30%" y="-30%" width="160%" height="160%">
      <feGaussianBlur stdDeviation="2" result="coloredBlur"/>
      <feMerge>
        <feMergeNode in="coloredBlur"/>
        <feMergeNode in="SourceGraphic"/>
      </feMerge>
    </filter>
  </defs>

  <!-- ============== PREMIUM HEXAGON FRAME ============== -->
  <g id="hexagon-frame" filter="url(#premium-glow)">
    <!-- Outer Hexagon with Rounded Corners -->
    <path d="
      M256,40
      C275,40 290,50 305,65
      L395,155
      C410,170 420,185 420,205
      L420,307
      C420,325 410,340 395,355
      L305,445
      C290,460 275,470 256,470
      C235,470 220,460 205,445
      L115,355
      C100,340 90,325 90,307
      L90,205
      C90,185 100,170 115,155
      L205,65
      C220,50 235,40 256,40
      Z"
      fill="none" 
      stroke="url(#hexagon-gradient)" 
      stroke-width="12"
      stroke-linecap="round"
      stroke-linejoin="round"/>
    
    <!-- Inner Hexagon for Depth -->
    <path d="
      M256,55
      C272,55 285,63 298,76
      L380,158
      C393,171 401,184 401,200
      L401,312
      C401,328 393,341 380,354
      L298,436
      C285,449 272,457 256,457
      C240,457 227,449 214,436
      L132,354
      C119,341 111,328 111,312
      L111,200
      C111,184 119,171 132,158
      L214,76
      C227,63 240,55 256,55
      Z"
      fill="none" 
      stroke="url(#hexagon-gradient)" 
      stroke-width="4"
      opacity="0.6"/>
  </g>

  <!-- ============== INTELLIGENT BRAIN DESIGN ============== -->
  <g id="brain-intelligence" filter="url(#subtle-glow)">
    <!-- Left Brain Hemisphere -->
    <path d="
      M256,120
      C240,120 228,125 220,135
      C215,140 212,145 210,152
      C208,158 208,165 210,172
      C212,178 215,183 220,188
      C225,193 232,197 240,199
      C245,200 250,200 256,200"
      fill="none" 
      stroke="url(#brain-gradient)" 
      stroke-width="8"
      stroke-linecap="round"/>
    
    <!-- Right Brain Hemisphere -->
    <path d="
      M256,120
      C272,120 284,125 292,135
      C297,140 300,145 302,152
      C304,158 304,165 302,172
      C300,178 297,183 292,188
      C287,193 280,197 272,199
      C267,200 262,200 256,200"
      fill="none" 
      stroke="url(#brain-gradient)" 
      stroke-width="8"
      stroke-linecap="round"/>
    
    <!-- Central Connection -->
    <line x1="256" y1="120" x2="256" y2="200" 
          stroke="url(#brain-gradient)" 
          stroke-width="6" 
          stroke-linecap="round"/>
    
    <!-- Neural Networks (Left Side) -->
    <g id="left-neurons">
      <path d="M230,140 Q225,145 228,150 Q235,148 232,155" 
            fill="none" stroke="url(#brain-gradient)" stroke-width="3" stroke-linecap="round"/>
      <path d="M235,165 Q240,160 235,170 Q230,172 238,175" 
            fill="none" stroke="url(#brain-gradient)" stroke-width="3" stroke-linecap="round"/>
      <path d="M225,180 Q220,175 225,185 Q230,187 222,190" 
            fill="none" stroke="url(#brain-gradient)" stroke-width="3" stroke-linecap="round"/>
    </g>
    
    <!-- Neural Networks (Right Side) -->
    <g id="right-neurons">
      <path d="M282,140 Q287,145 284,150 Q277,148 280,155" 
            fill="none" stroke="url(#brain-gradient)" stroke-width="3" stroke-linecap="round"/>
      <path d="M277,165 Q272,160 277,170 Q282,172 274,175" 
            fill="none" stroke="url(#brain-gradient)" stroke-width="3" stroke-linecap="round"/>
      <path d="M287,180 Q292,175 287,185 Q282,187 290,190" 
            fill="none" stroke="url(#brain-gradient)" stroke-width="3" stroke-linecap="round"/>
    </g>
  </g>

  <!-- ============== PREMIUM GAMING CONTROLLER ============== -->
  <g id="gaming-controller" filter="url(#inner-shadow)">
    <!-- Controller Body Outline -->
    <path d="
      M180,240
      C165,240 155,250 155,265
      L155,300
      C155,320 165,335 180,345
      L200,360
      C210,368 220,370 230,370
      L250,370
      C255,370 260,368 265,365
      C270,362 275,358 280,355
      L285,350
      C287,348 288,346 290,344
      C292,342 295,340 298,340
      L332,340
      C335,340 338,342 340,344
      C342,346 343,348 345,350
      L350,355
      C355,358 360,362 365,365
      C370,368 375,370 380,370
      L400,370
      C410,370 420,368 430,360
      L450,345
      C465,335 475,320 475,300
      L475,265
      C475,250 465,240 450,240
      L420,240
      C405,240 395,245 390,255
      L385,265
      C383,268 380,270 377,270
      L355,270
      C352,270 349,268 347,265
      L342,255
      C337,245 327,240 312,240
      L180,240
      Z"
      fill="none" 
      stroke="url(#controller-gradient)" 
      stroke-width="10"
      stroke-linecap="round"
      stroke-linejoin="round"/>

    <!-- D-Pad (Left Controls) -->
    <g id="d-pad">
      <!-- Horizontal Bar -->
      <rect x="190" y="285" width="35" height="12" rx="6" 
            fill="url(#controller-gradient)"/>
      <!-- Vertical Bar -->
      <rect x="202" y="273" width="12" height="35" rx="6" 
            fill="url(#controller-gradient)"/>
    </g>

    <!-- Action Buttons (Right Controls) -->
    <g id="action-buttons">
      <!-- Button A -->
      <circle cx="410" cy="280" r="8" fill="url(#controller-gradient)"/>
      <!-- Button B -->
      <circle cx="430" cy="295" r="6" fill="url(#controller-gradient)"/>
      <!-- Button X -->
      <circle cx="390" cy="295" r="6" fill="url(#controller-gradient)"/>
      <!-- Button Y -->
      <circle cx="410" cy="310" r="6" fill="url(#controller-gradient)"/>
    </g>

    <!-- Analog Sticks -->
    <g id="analog-sticks">
      <!-- Left Stick -->
      <circle cx="230" cy="320" r="12" 
              fill="none" 
              stroke="url(#controller-gradient)" 
              stroke-width="4"/>
      <circle cx="230" cy="320" r="6" fill="url(#controller-gradient)"/>
      
      <!-- Right Stick -->
      <circle cx="380" cy="340" r="12" 
              fill="none" 
              stroke="url(#controller-gradient)" 
              stroke-width="4"/>
      <circle cx="380" cy="340" r="6" fill="url(#controller-gradient)"/>
    </g>
  </g>

  <!-- ============== PREMIUM ENHANCEMENT EFFECTS ============== -->
  <g id="enhancement-effects" opacity="0.8">
    <!-- Subtle Pulse Animation -->
    <circle cx="256" cy="256" r="180" 
            fill="none" 
            stroke="url(#hexagon-gradient)" 
            stroke-width="1" 
            opacity="0.3">
      <animate attributeName="r" values="180;190;180" dur="4s" repeatCount="indefinite"/>
      <animate attributeName="opacity" values="0.3;0.6;0.3" dur="4s" repeatCount="indefinite"/>
    </circle>
    
    <!-- Brand Highlight Points -->
    <g id="brand-highlights">
      <circle cx="256" cy="80" r="3" fill="#EC4899">
        <animate attributeName="opacity" values="0.5;1;0.5" dur="3s" repeatCount="indefinite"/>
      </circle>
      <circle cx="380" cy="170" r="2" fill="#A855F7">
        <animate attributeName="opacity" values="0.3;0.8;0.3" dur="2.5s" repeatCount="indefinite"/>
      </circle>
      <circle cx="380" cy="342" r="2" fill="#6366F1">
        <animate attributeName="opacity" values="0.4;0.9;0.4" dur="3.5s" repeatCount="indefinite"/>
      </circle>
      <circle cx="256" cy="430" r="3" fill="#F97316">
        <animate attributeName="opacity" values="0.5;1;0.5" dur="2.8s" repeatCount="indefinite"/>
      </circle>
      <circle cx="132" cy="342" r="2" fill="#EF4444">
        <animate attributeName="opacity" values="0.3;0.7;0.3" dur="3.2s" repeatCount="indefinite"/>
      </circle>
      <circle cx="132" cy="170" r="2" fill="#8B5CF6">
        <animate attributeName="opacity" values="0.4;0.8;0.4" dur="2.7s" repeatCount="indefinite"/>
      </circle>
    </g>
  </g>

  <!-- ============== PREMIUM BRANDING SIGNATURE ============== -->
  <g id="premium-signature" opacity="0.7">
    <!-- Corner Accents -->
    <rect x="50" y="50" width="25" height="2" rx="1" fill="url(#hexagon-gradient)"/>
    <rect x="50" y="50" width="2" height="25" rx="1" fill="url(#hexagon-gradient)"/>
    
    <rect x="437" y="50" width="25" height="2" rx="1" fill="url(#hexagon-gradient)"/>
    <rect x="460" y="50" width="2" height="25" rx="1" fill="url(#hexagon-gradient)"/>
    
    <rect x="50" y="460" width="25" height="2" rx="1" fill="url(#hexagon-gradient)"/>
    <rect x="50" y="437" width="2" height="25" rx="1" fill="url(#hexagon-gradient)"/>
    
    <rect x="437" y="460" width="25" height="2" rx="1" fill="url(#hexagon-gradient)"/>
    <rect x="460" y="437" width="2" height="25" rx="1" fill="url(#hexagon-gradient)"/>
  </g>
</svg>
