<?xml version="1.0" encoding="UTF-8"?>
<svg width="1024" height="1024" viewBox="0 0 1024 1024"
     xmlns="http://www.w3.org/2000/svg"
     xmlns:xlink="http://www.w3.org/1999/xlink">

  <!-- ==============  DEFINITIONS  ============== -->
  <defs>
    <!-- Фоновий градієнт -->
    <linearGradient id="bg-grad" x1="0" y1="0" x2="1" y2="1">
      <stop offset="0%"  stop-color="#F4F5F7"/>
      <stop offset="100%" stop-color="#DFE1E4"/>
    </linearGradient>

    <!-- Градієнт корпусу -->
    <radialGradient id="body-grad" cx="0.32" cy="0.25" r="0.9">
      <stop offset="0%"  stop-color="#33363F"/>
      <stop offset="65%" stop-color="#262830"/>
      <stop offset="100%" stop-color="#1B1D23"/>
    </radialGradient>

    <!-- Блік корпусу -->
    <linearGradient id="body-highlight" x1="0" y1="0" x2="0" y2="1">
      <stop offset="0%"  stop-color="rgba(255,255,255,0.25)"/>
      <stop offset="25%" stop-color="rgba(255,255,255,0.06)"/>
      <stop offset="100%" stop-color="rgba(255,255,255,0)"/>
    </linearGradient>

    <!-- Світіння -->
    <filter id="glow-neon" x="-60%" y="-60%" width="220%" height="220%">
      <feGaussianBlur stdDeviation="5" result="colored"/>
      <feMerge>
        <feMergeNode in="colored"/>
        <feMergeNode in="colored"/>
        <feMergeNode in="SourceGraphic"/>
      </feMerge>
    </filter>

    <!-- Тінь під геймпадом -->
    <filter id="shadow-pad" x="-20%" y="-20%" width="140%" height="160%">
      <feGaussianBlur in="SourceAlpha" stdDeviation="18" result="blur"/>
      <feOffset dy="12" result="offset"/>
      <feMerge>
        <feMergeNode in="offset"/>
        <feMergeNode in="SourceGraphic"/>
      </feMerge>
    </filter>
  </defs>

  <!-- ==============  BACKGROUND  ============== -->
  <rect width="1024" height="1024" fill="url(#bg-grad)"/>

  <!-- ==============  CONTROLLER  ============== -->
  <g id="controller" filter="url(#shadow-pad)">
    <!-- Тінь -->
    <ellipse cx="512" cy="690" rx="255" ry="45" fill="#000" opacity="0.12"/>

    <!-- Корпус -->
    <g id="body">
      <path d="
        M240,530
        C220,460 300,385 403,365
        C458,355 512,352 618,365
        C722,385 804,460 783,535
        C768,585 732,620 690,654
        C658,672 627,680 594,660
        C564,642 556,616 558,580
        C560,552 540,536 512,536
        C484,536 464,552 466,580
        C468,618 454,642 427,660
        C394,680 363,672 331,654
        C288,620 255,585 240,530
        Z"
        fill="url(#body-grad)" stroke="#0F1014" stroke-width="2"/>

      <path d="
        M240,530
        C220,460 300,385 403,365
        C458,355 512,352 618,365
        C722,385 804,460 783,535
        C768,585 732,620 690,654
        C658,672 627,680 594,660
        C564,642 556,616 558,580
        C560,552 540,536 512,536
        C484,536 464,552 466,580
        C468,618 454,642 427,660
        C394,680 363,672 331,654
        C288,620 255,585 240,530
        Z"
        fill="url(#body-highlight)"/>
    </g>

    <!-- Сенсорна панель -->
    <rect x="382" y="380" width="260" height="60" rx="14"
          fill="#1B1D23" stroke="#2E3036" stroke-width="2"/>

    <!-- Аналогові стики -->
    <g id="sticks" fill="#1C1E23" stroke="#000" stroke-width="1.8">
      <circle cx="412" cy="538" r="32"/>
      <circle cx="612" cy="538" r="32"/>
    </g>

    <!-- Верхні кнопки -->
    <rect x="300" y="330" width="120" height="18" rx="9" fill="#111317"/>
    <rect x="604" y="330" width="120" height="18" rx="9" fill="#111317"/>

    <!-- ===========  BUTTONS  =========== -->
    <g id="buttons">
      <!-- D-pad -->
      <g filter="url(#glow-neon)">
        <rect x="322" y="460" width="29" height="92" rx="6" fill="#A020F0"/>
        <rect x="295" y="487" width="92" height="29" rx="6" fill="#A020F0"/>
      </g>

      <!-- ABXY кнопки -->
      <g fill="#66E0FF" filter="url(#glow-neon)">
        <circle cx="692" cy="442" r="16"/>
        <circle cx="724" cy="474" r="16"/>
        <circle cx="692" cy="506" r="16"/>
        <circle cx="660" cy="474" r="16"/>
      </g>
    </g>
  </g>
</svg>
