<?xml version="1.0" encoding="UTF-8"?>
<svg width="800" height="800" viewBox="0 0 800 800"
     xmlns="http://www.w3.org/2000/svg"
     xmlns:xlink="http://www.w3.org/1999/xlink">

  <!-- ============== ADVANCED ORGANIC BRAIN DEFINITIONS ============== -->
  <defs>
    <!-- Revolutionary Gradient System -->
    <linearGradient id="brain-evolution" x1="0%" y1="0%" x2="100%" y2="100%">
      <stop offset="0%" stop-color="#6366F1">
        <animate attributeName="stop-color" 
                 values="#6366F1;#8B5CF6;#6366F1" 
                 dur="8s" 
                 repeatCount="indefinite"/>
      </stop>
      <stop offset="25%" stop-color="#8B5CF6"/>
      <stop offset="50%" stop-color="#A855F7"/>
      <stop offset="75%" stop-color="#EC4899"/>
      <stop offset="100%" stop-color="#F97316">
        <animate attributeName="stop-color" 
                 values="#F97316;#EC4899;#F97316" 
                 dur="8s" 
                 repeatCount="indefinite"/>
      </stop>
    </linearGradient>

    <!-- Hexagon Frame Gradient -->
    <linearGradient id="frame-gradient" x1="0%" y1="0%" x2="100%" y2="100%">
      <stop offset="0%" stop-color="#6366F1"/>
      <stop offset="30%" stop-color="#8B5CF6"/>
      <stop offset="60%" stop-color="#A855F7"/>
      <stop offset="90%" stop-color="#EC4899"/>
      <stop offset="100%" stop-color="#F97316"/>
    </linearGradient>

    <!-- Neural Activity Gradient -->
    <radialGradient id="neural-activity" cx="50%" cy="50%" r="50%">
      <stop offset="0%" stop-color="#A855F7" stop-opacity="0.8"/>
      <stop offset="50%" stop-color="#EC4899" stop-opacity="0.6"/>
      <stop offset="100%" stop-color="#F97316" stop-opacity="0.4"/>
    </radialGradient>

    <!-- Premium Glow Effects -->
    <filter id="intelligence-glow" x="-50%" y="-50%" width="200%" height="200%">
      <feGaussianBlur stdDeviation="6" result="coloredBlur"/>
      <feMerge>
        <feMergeNode in="coloredBlur"/>
        <feMergeNode in="SourceGraphic"/>
      </feMerge>
    </filter>

    <!-- Brain Pulse Effect -->
    <filter id="brain-pulse" x="-30%" y="-30%" width="160%" height="160%">
      <feGaussianBlur stdDeviation="3" result="coloredBlur"/>
      <feMerge>
        <feMergeNode in="coloredBlur"/>
        <feMergeNode in="SourceGraphic"/>
      </feMerge>
    </filter>

    <!-- Neural Network Animation Path -->
    <path id="neural-path-1" d="M300,350 Q320,330 340,350 Q360,370 380,350 Q400,330 420,350"/>
    <path id="neural-path-2" d="M320,380 Q340,360 360,380 Q380,400 400,380"/>
    <path id="neural-path-3" d="M280,320 Q300,300 320,320 Q340,340 360,320"/>

    <!-- Text Shadow -->
    <filter id="text-shadow" x="-50%" y="-50%" width="200%" height="200%">
      <feDropShadow dx="3" dy="3" stdDeviation="5" flood-color="#000000" flood-opacity="0.6"/>
    </filter>
  </defs>

  <!-- ============== PREMIUM BLACK BACKGROUND ============== -->
  <rect width="800" height="800" fill="#000000"/>

  <!-- ============== INTELLIGENT HEXAGON FRAME ============== -->
  <g id="hexagon-container" transform="translate(400, 300)" filter="url(#intelligence-glow)">
    
    <!-- Main Hexagon Frame -->
    <path d="
      M0,-180
      L156,-90
      C166,-85 170,-75 170,-65
      L156,90
      C151,100 141,105 130,105
      L0,180
      L-130,105
      C-141,105 -151,100 -156,90
      L-170,-65
      C-170,-75 -166,-85 -156,-90
      L0,-180
      Z"
      fill="none" 
      stroke="url(#frame-gradient)" 
      stroke-width="12"
      stroke-linecap="round"
      stroke-linejoin="round"/>
    
    <!-- Inner Hexagon for Depth -->
    <path d="
      M0,-160
      L138,-80
      C146,-76 150,-68 150,-60
      L138,80
      C134,88 126,92 118,92
      L0,160
      L-118,92
      C-126,92 -134,88 -138,80
      L-150,-60
      C-150,-68 -146,-76 -138,-80
      L0,-160
      Z"
      fill="none" 
      stroke="url(#frame-gradient)" 
      stroke-width="4"
      opacity="0.6"/>
  </g>

  <!-- ============== REVOLUTIONARY ORGANIC BRAIN DESIGN ============== -->
  <g id="organic-brain" transform="translate(400, 300)" filter="url(#brain-pulse)">
    
    <!-- Left Brain Hemisphere - Logical/Analytical -->
    <g id="left-hemisphere">
      <!-- Main structure -->
      <path d="
        M-80,-60
        C-120,-40 -130,-10 -125,20
        C-120,50 -100,70 -80,80
        C-60,90 -40,85 -20,75
        C-10,70 -5,60 -8,50
        C-12,40 -20,35 -25,30
        C-30,25 -32,20 -30,15
        C-28,10 -25,8 -20,10
        C-15,12 -12,16 -10,20
        C-8,24 -6,28 -4,32
        C-2,36 0,40 2,44
        C4,48 6,52 4,56
        C2,60 -2,62 -6,60
        C-10,58 -12,54 -15,50
        C-18,46 -22,42 -26,38
        C-30,34 -35,30 -40,26
        C-45,22 -50,18 -55,14
        C-60,10 -65,6 -70,2
        C-75,-2 -78,-8 -80,-15
        C-82,-22 -82,-30 -80,-38
        C-78,-46 -75,-54 -70,-60
        C-65,-66 -58,-70 -50,-72
        C-42,-74 -34,-74 -26,-72
        C-18,-70 -10,-66 -4,-60
        C2,-54 6,-46 8,-38
        C10,-30 10,-22 8,-14
        C6,-6 2,2 -2,8
        C-6,14 -12,18 -18,20
        C-24,22 -30,22 -36,20
        C-42,18 -47,14 -51,9
        C-55,4 -58,-2 -60,-8
        C-62,-14 -63,-20 -62,-26
        C-61,-32 -59,-38 -55,-43
        C-51,-48 -46,-52 -40,-54
        C-34,-56 -28,-56 -22,-54
        C-16,-52 -11,-48 -7,-43
        C-3,-38 -1,-32 0,-26
        C1,-20 1,-14 0,-8
        C-1,-2 -3,4 -6,9
        C-9,14 -13,18 -18,21
        C-23,24 -28,26 -33,27
        C-38,28 -43,28 -48,27
        C-53,26 -58,24 -62,21
        C-66,18 -69,14 -71,9
        C-73,4 -74,-1 -74,-6
        C-74,-11 -73,-16 -71,-21
        C-69,-26 -66,-30 -62,-33
        C-58,-36 -53,-38 -48,-39
        C-43,-40 -38,-40 -33,-39
        C-28,-38 -23,-36 -19,-33
        C-15,-30 -12,-26 -10,-21
        C-8,-16 -7,-11 -7,-6
        C-7,-1 -8,4 -10,8
        C-12,12 -15,15 -19,17
        C-23,19 -27,20 -31,20
        C-35,20 -39,19 -42,17
        C-45,15 -47,12 -48,8
        C-49,4 -49,0 -48,-4
        C-47,-8 -45,-11 -42,-13
        C-39,-15 -35,-16 -31,-16
        C-27,-16 -23,-15 -20,-13
        C-17,-11 -15,-8 -14,-4
        C-13,0 -13,4 -14,7
        C-15,10 -17,12 -20,13
        C-23,14 -26,14 -29,13
        C-32,12 -34,10 -35,7
        C-36,4 -36,1 -35,-2
        C-34,-5 -32,-7 -29,-8
        C-26,-9 -23,-9 -20,-8
        C-17,-7 -15,-5 -14,-2
        C-13,1 -13,4 -14,6
        C-15,8 -17,9 -19,9
        C-21,9 -23,8 -24,6
        C-25,4 -25,2 -24,0
        C-23,-2 -21,-3 -19,-3
        C-17,-3 -15,-2 -14,0
        C-13,2 -13,4 -14,5
        C-15,6 -16,6 -17,5
        C-18,4 -18,3 -17,2
        C-16,1 -15,1 -14,2
        Z"
        fill="none" 
        stroke="url(#brain-evolution)" 
        stroke-width="6"
        stroke-linecap="round"
        stroke-linejoin="round"/>
      
      <!-- Left hemisphere neural patterns -->
      <g id="left-neural-patterns" opacity="0.8">
        <path d="M-60,-30 Q-50,-20 -45,-10 Q-40,0 -35,10" 
              fill="none" stroke="url(#brain-evolution)" stroke-width="3" stroke-linecap="round">
          <animate attributeName="d" 
                   values="M-60,-30 Q-50,-20 -45,-10 Q-40,0 -35,10;M-60,-30 Q-55,-25 -45,-10 Q-35,-5 -35,10;M-60,-30 Q-50,-20 -45,-10 Q-40,0 -35,10" 
                   dur="4s" 
                   repeatCount="indefinite"/>
        </path>
        
        <path d="M-70,0 Q-60,10 -50,20 Q-40,30 -30,35" 
              fill="none" stroke="url(#brain-evolution)" stroke-width="3" stroke-linecap="round">
          <animate attributeName="d" 
                   values="M-70,0 Q-60,10 -50,20 Q-40,30 -30,35;M-70,0 Q-65,5 -50,20 Q-35,25 -30,35;M-70,0 Q-60,10 -50,20 Q-40,30 -30,35" 
                   dur="5s" 
                   repeatCount="indefinite"/>
        </path>
        
        <path d="M-45,-40 Q-35,-30 -25,-20 Q-15,-10 -10,0" 
              fill="none" stroke="url(#brain-evolution)" stroke-width="2.5" stroke-linecap="round"/>
      </g>
    </g>

    <!-- Right Brain Hemisphere - Creative/Intuitive -->
    <g id="right-hemisphere">
      <!-- Main structure -->
      <path d="
        M80,-60
        C120,-40 130,-10 125,20
        C120,50 100,70 80,80
        C60,90 40,85 20,75
        C10,70 5,60 8,50
        C12,40 20,35 25,30
        C30,25 32,20 30,15
        C28,10 25,8 20,10
        C15,12 12,16 10,20
        C8,24 6,28 4,32
        C2,36 0,40 -2,44
        C-4,48 -6,52 -4,56
        C-2,60 2,62 6,60
        C10,58 12,54 15,50
        C18,46 22,42 26,38
        C30,34 35,30 40,26
        C45,22 50,18 55,14
        C60,10 65,6 70,2
        C75,-2 78,-8 80,-15
        C82,-22 82,-30 80,-38
        C78,-46 75,-54 70,-60
        C65,-66 58,-70 50,-72
        C42,-74 34,-74 26,-72
        C18,-70 10,-66 4,-60
        C-2,-54 -6,-46 -8,-38
        C-10,-30 -10,-22 -8,-14
        C-6,-6 -2,2 2,8
        C6,14 12,18 18,20
        C24,22 30,22 36,20
        C42,18 47,14 51,9
        C55,4 58,-2 60,-8
        C62,-14 63,-20 62,-26
        C61,-32 59,-38 55,-43
        C51,-48 46,-52 40,-54
        C34,-56 28,-56 22,-54
        C16,-52 11,-48 7,-43
        C3,-38 1,-32 0,-26
        C-1,-20 -1,-14 0,-8
        C1,-2 3,4 6,9
        C9,14 13,18 18,21
        C23,24 28,26 33,27
        C38,28 43,28 48,27
        C53,26 58,24 62,21
        C66,18 69,14 71,9
        C73,4 74,-1 74,-6
        C74,-11 73,-16 71,-21
        C69,-26 66,-30 62,-33
        C58,-36 53,-38 48,-39
        C43,-40 38,-40 33,-39
        C28,-38 23,-36 19,-33
        C15,-30 12,-26 10,-21
        C8,-16 7,-11 7,-6
        C7,-1 8,4 10,8
        C12,12 15,15 19,17
        C23,19 27,20 31,20
        C35,20 39,19 42,17
        C45,15 47,12 48,8
        C49,4 49,0 48,-4
        C47,-8 45,-11 42,-13
        C39,-15 35,-16 31,-16
        C27,-16 23,-15 20,-13
        C17,-11 15,-8 14,-4
        C13,0 13,4 14,7
        C15,10 17,12 20,13
        C23,14 26,14 29,13
        C32,12 34,10 35,7
        C36,4 36,1 35,-2
        C34,-5 32,-7 29,-8
        C26,-9 23,-9 20,-8
        C17,-7 15,-5 14,-2
        C13,1 13,4 14,6
        C15,8 17,9 19,9
        C21,9 23,8 24,6
        C25,4 25,2 24,0
        C23,-2 21,-3 19,-3
        C17,-3 15,-2 14,0
        C13,2 13,4 14,5
        C15,6 16,6 17,5
        C18,4 18,3 17,2
        C16,1 15,1 14,2
        Z"
        fill="none" 
        stroke="url(#brain-evolution)" 
        stroke-width="6"
        stroke-linecap="round"
        stroke-linejoin="round"/>
      
      <!-- Right hemisphere neural patterns -->
      <g id="right-neural-patterns" opacity="0.8">
        <path d="M60,-30 Q50,-20 45,-10 Q40,0 35,10" 
              fill="none" stroke="url(#brain-evolution)" stroke-width="3" stroke-linecap="round">
          <animate attributeName="d" 
                   values="M60,-30 Q50,-20 45,-10 Q40,0 35,10;M60,-30 Q55,-25 45,-10 Q35,-5 35,10;M60,-30 Q50,-20 45,-10 Q40,0 35,10" 
                   dur="3.5s" 
                   repeatCount="indefinite"/>
        </path>
        
        <path d="M70,0 Q60,10 50,20 Q40,30 30,35" 
              fill="none" stroke="url(#brain-evolution)" stroke-width="3" stroke-linecap="round">
          <animate attributeName="d" 
                   values="M70,0 Q60,10 50,20 Q40,30 30,35;M70,0 Q65,5 50,20 Q35,25 30,35;M70,0 Q60,10 50,20 Q40,30 30,35" 
                   dur="4.5s" 
                   repeatCount="indefinite"/>
        </path>
        
        <path d="M45,-40 Q35,-30 25,-20 Q15,-10 10,0" 
              fill="none" stroke="url(#brain-evolution)" stroke-width="2.5" stroke-linecap="round"/>
      </g>
    </g>

    <!-- Central Neural Connection (Corpus Callosum) -->
    <g id="central-connection">
      <line x1="0" y1="-50" x2="0" y2="60" 
            stroke="url(#brain-evolution)" 
            stroke-width="8" 
            stroke-linecap="round">
        <animate attributeName="stroke-width" values="8;12;8" dur="3s" repeatCount="indefinite"/>
        <animate attributeName="opacity" values="0.8;1;0.8" dur="3s" repeatCount="indefinite"/>
      </line>
      
      <!-- Central processing nodes -->
      <circle cx="0" cy="-30" r="4" fill="url(#brain-evolution)">
        <animate attributeName="r" values="4;6;4" dur="2s" repeatCount="indefinite"/>
      </circle>
      <circle cx="0" cy="0" r="5" fill="url(#brain-evolution)">
        <animate attributeName="r" values="5;8;5" dur="2.5s" repeatCount="indefinite"/>
      </circle>
      <circle cx="0" cy="30" r="4" fill="url(#brain-evolution)">
        <animate attributeName="r" values="4;6;4" dur="3s" repeatCount="indefinite"/>
      </circle>
    </g>

    <!-- Neural Activity Synapses -->
    <g id="synapses" opacity="0.7">
      <!-- Left side synapses -->
      <circle cx="-40" cy="-20" r="2" fill="#00FF88">
        <animate attributeName="opacity" values="0.5;1;0.5" dur="2s" repeatCount="indefinite"/>
      </circle>
      <circle cx="-60" cy="10" r="1.5" fill="#FF6B6B">
        <animate attributeName="opacity" values="0.3;0.9;0.3" dur="1.8s" repeatCount="indefinite"/>
      </circle>
      <circle cx="-30" cy="40" r="2.5" fill="#4ECDC4">
        <animate attributeName="opacity" values="0.6;1;0.6" dur="2.3s" repeatCount="indefinite"/>
      </circle>
      
      <!-- Right side synapses -->
      <circle cx="40" cy="-20" r="2" fill="#FFD93D">
        <animate attributeName="opacity" values="0.4;0.8;0.4" dur="2.1s" repeatCount="indefinite"/>
      </circle>
      <circle cx="60" cy="10" r="1.5" fill="#A855F7">
        <animate attributeName="opacity" values="0.5;1;0.5" dur="1.9s" repeatCount="indefinite"/>
      </circle>
      <circle cx="30" cy="40" r="2.5" fill="#EC4899">
        <animate attributeName="opacity" values="0.7;1;0.7" dur="2.4s" repeatCount="indefinite"/>
      </circle>
    </g>

    <!-- Brainwave Activity -->
    <g id="brainwave" opacity="0.4">
      <path d="M-100,-20 Q-80,0 -60,-20 Q-40,0 -20,-20 Q0,0 20,-20 Q40,0 60,-20 Q80,0 100,-20" 
            fill="none" 
            stroke="url(#neural-activity)" 
            stroke-width="2">
        <animate attributeName="d" 
                 values="M-100,-20 Q-80,0 -60,-20 Q-40,0 -20,-20 Q0,0 20,-20 Q40,0 60,-20 Q80,0 100,-20;M-100,-20 Q-80,-40 -60,-20 Q-40,-40 -20,-20 Q0,-40 20,-20 Q40,-40 60,-20 Q80,-40 100,-20;M-100,-20 Q-80,0 -60,-20 Q-40,0 -20,-20 Q0,0 20,-20 Q40,0 60,-20 Q80,0 100,-20" 
                 dur="6s" 
                 repeatCount="indefinite"/>
      </path>
      
      <path d="M-100,40 Q-80,60 -60,40 Q-40,60 -20,40 Q0,60 20,40 Q40,60 60,40 Q80,60 100,40" 
            fill="none" 
            stroke="url(#neural-activity)" 
            stroke-width="2">
        <animate attributeName="d" 
                 values="M-100,40 Q-80,60 -60,40 Q-40,60 -20,40 Q0,60 20,40 Q40,60 60,40 Q80,60 100,40;M-100,40 Q-80,20 -60,40 Q-40,20 -20,40 Q0,20 20,40 Q40,20 60,40 Q80,20 100,40;M-100,40 Q-80,60 -60,40 Q-40,60 -20,40 Q0,60 20,40 Q40,60 60,40 Q80,60 100,40" 
                 dur="4s" 
                 repeatCount="indefinite"/>
      </path>
    </g>
  </g>

  <!-- ============== PERFECTLY CENTERED TEXT ============== -->
  <g id="ggenius-text" transform="translate(400, 600)" filter="url(#text-shadow)">
    <!-- Main Text -->
    <text x="0" y="0"
          font-family="Arial, Helvetica, sans-serif"
          font-size="120"
          font-weight="900"
          fill="#FFFFFF"
          text-anchor="middle"
          dominant-baseline="central">GGenius</text>
    
    <!-- Text Enhancement -->
    <text x="0" y="0"
          font-family="Arial, Helvetica, sans-serif"
          font-size="120"
          font-weight="900"
          fill="url(#brain-evolution)"
          text-anchor="middle"
          dominant-baseline="central"
          opacity="0.3">GGenius</text>
    
    <!-- Subtitle -->
    <text x="0" y="50"
          font-family="Arial, Helvetica, sans-serif"
          font-size="24"
          font-weight="600"
          fill="#A0AEC0"
          text-anchor="middle"
          opacity="0.9">Intelligence Unleashed</text>
  </g>

  <!-- ============== INTELLIGENCE ENHANCEMENT EFFECTS ============== -->
  <g id="intelligence-effects" opacity="0.6">
    <!-- Consciousness Pulse -->
    <circle cx="400" cy="300" r="200" 
            fill="none" 
            stroke="url(#brain-evolution)" 
            stroke-width="2" 
            opacity="0.4">
      <animate attributeName="r" values="200;230;200" dur="8s" repeatCount="indefinite"/>
      <animate attributeName="opacity" values="0.4;0.8;0.4" dur="8s" repeatCount="indefinite"/>
    </circle>
    
    <!-- Genius Indicators -->
    <g id="genius-indicators">
      <circle cx="250" cy="200" r="3" fill="#00FF88">
        <animate attributeName="opacity" values="0.5;1;0.5" dur="3s" repeatCount="indefinite"/>
      </circle>
      <circle cx="550" cy="250" r="2.5" fill="#FF6B6B">
        <animate attributeName="opacity" values="0.4;0.9;0.4" dur="2.5s" repeatCount="indefinite"/>
      </circle>
      <circle cx="200" cy="400" r="3" fill="#4ECDC4">
        <animate attributeName="opacity" values="0.6;1;0.6" dur="3.5s" repeatCount="indefinite"/>
      </circle>
      <circle cx="600" cy="350" r="2" fill="#A855F7">
        <animate attributeName="opacity" values="0.3;0.8;0.3" dur="2.8s" repeatCount="indefinite"/>
      </circle>
    </g>
  </g>

  <!-- ============== PREMIUM BRAND ACCENTS ============== -->
  <g id="brand-accents" opacity="0.9">
    <!-- Corner Intelligence Markers -->
    <rect x="50" y="50" width="50" height="4" rx="2" fill="url(#brain-evolution)"/>
    <rect x="50" y="50" width="4" height="50" rx="2" fill="url(#brain-evolution)"/>
    
    <rect x="696" y="50" width="50" height="4" rx="2" fill="url(#brain-evolution)"/>
    <rect x="742" y="50" width="4" height="50" rx="2" fill="url(#brain-evolution)"/>
    
    <rect x="50" y="742" width="50" height="4" rx="2" fill="url(#brain-evolution)"/>
    <rect x="50" y="696" width="4" height="50" rx="2" fill="url(#brain-evolution)"/>
    
    <rect x="696" y="742" width="50" height="4" rx="2" fill="url(#brain-evolution)"/>
    <rect x="742" y="696" width="4" height="50" rx="2" fill="url(#brain-evolution)"/>
  </g>

  <!-- ============== INTELLIGENCE STATUS PANEL ============== -->
  <g id="status-panel" transform="translate(550, 100)" opacity="0.9">
    <rect x="0" y="0" width="200" height="100" rx="15" 
          fill="rgba(0,0,0,0.6)" 
          stroke="url(#brain-evolution)" 
          stroke-width="2"/>
    
    <text x="20" y="30" fill="#A855F7" 
          font-family="Arial, sans-serif" 
          font-size="16" 
          font-weight="bold">NEURAL ACTIVITY</text>
    
    <text x="20" y="50" fill="#FFFFFF" 
          font-family="Arial, sans-serif" 
          font-size="13">Brain State: GENIUS MODE</text>
    
    <text x="20" y="68" fill="#A0AEC0" 
          font-family="Arial, sans-serif" 
          font-size="12">Synaptic Flow: MAXIMUM</text>
    
    <text x="20" y="85" fill="#EC4899" 
          font-family="Arial, sans-serif" 
          font-size="11">Intelligence: EVOLVED</text>
    
    <!-- Neural Activity Indicator -->
    <rect x="20" y="90" width="160" height="6" rx="3" fill="rgba(255,255,255,0.2)"/>
    <rect x="20" y="90" width="140" height="6" rx="3" fill="url(#brain-evolution)">
      <animate attributeName="width" values="140;160;140" dur="4s" repeatCount="indefinite"/>
    </rect>
  </g>
</svg>
